<svg width="20" height="18" viewBox="0 0 20 18" fill="none" xmlns="http://www.w3.org/2000/svg">
<path d="M15.2 17.7501C15.0776 17.7499 14.9573 17.7189 14.85 17.6601L9.99999 15.1101L5.14999 17.6601C5.02675 17.7262 4.88746 17.7566 4.74786 17.7478C4.60825 17.7389 4.47391 17.6912 4.35999 17.6101C4.24625 17.5267 4.15796 17.4133 4.10497 17.2826C4.05199 17.1519 4.03642 17.0091 4.05999 16.8701L4.99999 11.4701L1.05999 7.65005C0.961242 7.55121 0.892069 7.42675 0.860265 7.2907C0.828462 7.15466 0.835293 7.01243 0.879989 6.88005C0.921856 6.74719 1.00038 6.62884 1.10652 6.53862C1.21266 6.4484 1.34211 6.38997 1.47999 6.37005L6.89999 5.58005L9.32999 0.670054C9.39915 0.554027 9.49726 0.457949 9.6147 0.391228C9.73215 0.324507 9.86491 0.289429 9.99999 0.289429C10.1351 0.289429 10.2678 0.324507 10.3853 0.391228C10.5027 0.457949 10.6008 0.554027 10.67 0.670054L13.1 5.58005L18.52 6.37005C18.6579 6.38997 18.7873 6.4484 18.8935 6.53862C18.9996 6.62884 19.0781 6.74719 19.12 6.88005C19.1647 7.01243 19.1715 7.15466 19.1397 7.2907C19.1079 7.42675 19.0387 7.55121 18.94 7.65005L15 11.4701L15.93 16.8701C15.9536 17.0091 15.938 17.1519 15.885 17.2826C15.832 17.4133 15.7437 17.5267 15.63 17.6101C15.5034 17.6976 15.3539 17.7463 15.2 17.7501ZM9.99999 13.5201C10.121 13.5215 10.2403 13.5488 10.35 13.6001L14.2 15.6001L13.47 11.3101C13.4502 11.1897 13.4589 11.0664 13.4953 10.9501C13.5318 10.8337 13.595 10.7275 13.68 10.6401L16.8 7.64005L12.49 7.00005C12.3708 6.98109 12.2578 6.93401 12.1605 6.86271C12.0631 6.79141 11.9841 6.69795 11.93 6.59005L9.99999 2.69005L8.06999 6.60005C8.01591 6.70795 7.9369 6.80141 7.83952 6.87271C7.74214 6.94401 7.62918 6.99109 7.50999 7.01005L3.19999 7.64005L6.31999 10.6401C6.40493 10.7275 6.46817 10.8337 6.50464 10.9501C6.54111 11.0664 6.54979 11.1897 6.52999 11.3101L5.79999 15.6301L9.64999 13.6301C9.75726 13.5683 9.87671 13.5308 9.99999 13.5201Z" fill="black"/>
</svg>
