<svg width="20" height="18" viewBox="0 0 20 18" fill="none" xmlns="http://www.w3.org/2000/svg">
<path d="M19.12 6.88005C19.0781 6.74719 18.9996 6.62884 18.8935 6.53862C18.7873 6.4484 18.6579 6.38997 18.52 6.37005L13.1 5.58005L10.67 0.670054C10.6008 0.554027 10.5027 0.457949 10.3853 0.391228C10.2678 0.324507 10.1351 0.289429 9.99999 0.289429C9.86491 0.289429 9.73215 0.324507 9.6147 0.391228C9.49726 0.457949 9.39915 0.554027 9.32999 0.670054L6.89999 5.58005L1.47999 6.37005C1.34211 6.38997 1.21266 6.4484 1.10652 6.53862C1.00038 6.62884 0.921856 6.74719 0.879989 6.88005C0.835293 7.01243 0.828462 7.15466 0.860265 7.2907C0.892069 7.42675 0.961242 7.55121 1.05999 7.65005L4.99999 11.4701L4.06999 16.8701C4.04642 17.0091 4.06199 17.1519 4.11497 17.2826C4.16796 17.4133 4.25625 17.5267 4.36999 17.6101C4.48391 17.6912 4.61825 17.7389 4.75785 17.7478C4.89746 17.7566 5.03675 17.7262 5.15999 17.6601L9.99999 15.1101L14.85 17.6601C14.9573 17.7189 15.0776 17.7499 15.2 17.7501C15.3573 17.7482 15.5105 17.6995 15.64 17.6101C15.7537 17.5267 15.842 17.4133 15.895 17.2826C15.948 17.1519 15.9636 17.0091 15.94 16.8701L15 11.4701L18.93 7.65005C19.0305 7.55229 19.1015 7.42832 19.1351 7.29222C19.1687 7.15612 19.1634 7.01333 19.12 6.88005Z" fill="black"/>
</svg>
