<svg width="54" height="53" viewBox="0 0 54 53" fill="none" xmlns="http://www.w3.org/2000/svg">
<path d="M8.68874 53C6.38789 53 4.20814 52.0918 2.54305 50.457C-0.847682 47.0662 -0.847682 41.5866 2.54305 38.1958L19.2242 21.5147C17.7105 15.6414 19.3453 9.3141 23.6443 5.01514C27.9735 0.685907 34.3311 -1.00946 40.2346 0.595084C41.0218 0.807004 41.6273 1.41249 41.8392 2.19962C42.0511 2.98676 41.8392 3.80417 41.264 4.37938L33.8467 11.7966L35.421 17.579L41.2034 19.1533L48.6206 11.736C49.1958 11.1608 50.0435 10.9489 50.8004 11.1608C51.5875 11.3728 52.193 11.9782 52.4049 12.7654C54.0095 18.6689 52.3444 25.0265 47.9849 29.3557C43.6859 33.6547 37.3586 35.2895 31.4853 33.7758L14.8042 50.457C13.1693 52.0918 10.9896 53 8.68874 53ZM34.6036 4.62157C31.6973 4.86377 28.9423 6.13529 26.8231 8.2545C23.3718 11.7058 22.2517 16.7616 23.9167 21.4238C24.2195 22.2413 24.0076 23.1798 23.3718 23.7852L5.72185 41.4352C4.11731 43.0397 4.11731 45.6736 5.72185 47.2781C6.50899 48.0653 7.53832 48.4891 8.65847 48.4891C9.74835 48.4891 10.8079 48.0653 11.5648 47.2781L29.2148 29.6282C29.8505 28.9924 30.7588 28.8108 31.5762 29.0833C36.2384 30.7181 41.2942 29.6282 44.7455 26.1769C46.8647 24.0577 48.106 21.3027 48.3784 18.3964L43.4437 23.3311C42.8685 23.9063 42.0208 24.1183 41.2337 23.9063L32.9385 21.6358C32.1514 21.4238 31.5459 20.8184 31.334 20.0312L29.0634 11.736C28.8515 10.9489 29.0634 10.1012 29.6386 9.52602L34.5733 4.5913L34.6036 4.62157Z" fill="#255586"/>
</svg>
