<svg width="61" height="53" viewBox="0 0 61 53" fill="none" xmlns="http://www.w3.org/2000/svg">
<path d="M20.4681 53C20.117 52.9855 19.7721 52.883 19.4544 52.6988C19.1367 52.5146 18.853 52.2526 18.6206 51.9289L1.19206 30.5073C0.859763 30.2425 0.580755 29.8884 0.376104 29.4716C0.171454 29.0549 0.0465098 28.5865 0.010706 28.1017C-0.0250979 27.6169 0.0291745 27.1285 0.169425 26.6733C0.309675 26.218 0.532238 25.8079 0.82031 25.4739C1.10838 25.1399 1.45443 24.8907 1.83233 24.7451C2.21024 24.5995 2.61011 24.5613 3.00177 24.6334C3.39343 24.7056 3.76663 24.8862 4.0932 25.1615C4.41977 25.4369 4.69118 25.7999 4.88692 26.223L20.4681 45.2454L56.9635 0.517102C57.4548 0.125555 58.0389 -0.0519058 58.6221 0.0131623C59.2052 0.0782304 59.7537 0.38206 60.1797 0.875954C60.6056 1.36985 60.8843 2.0252 60.9711 2.73698C61.0579 3.44876 60.9478 4.17575 60.6583 4.80142L22.3155 51.9289C22.0831 52.2526 21.7994 52.5146 21.4817 52.6988C21.164 52.883 20.8191 52.9855 20.4681 53Z" fill="#255586"/>
</svg>
