<svg width="53" height="53" viewBox="0 0 53 53" fill="none" xmlns="http://www.w3.org/2000/svg">
<path d="M26.5 53C21.2588 53 16.1353 51.4458 11.7774 48.5339C7.4195 45.6221 4.02293 41.4834 2.0172 36.6411C0.0114819 31.7989 -0.513306 26.4706 0.509202 21.3301C1.53171 16.1896 4.05559 11.4678 7.76168 7.76168C11.4678 4.05559 16.1896 1.53171 21.3301 0.509202C26.4706 -0.513306 31.7989 0.0114819 36.6411 2.0172C41.4834 4.02293 45.6221 7.4195 48.5339 11.7774C51.4458 16.1353 53 21.2588 53 26.5C53 33.5282 50.208 40.2686 45.2383 45.2383C40.2686 50.208 33.5282 53 26.5 53ZM26.5 4.41668C22.1323 4.41668 17.8628 5.71184 14.2312 8.13839C10.5996 10.5649 7.7691 14.0139 6.09767 18.0491C4.42624 22.0843 3.98891 26.5245 4.841 30.8082C5.69309 35.092 7.79633 39.0269 10.8847 42.1153C13.9731 45.2037 17.908 47.3069 22.1918 48.159C26.4755 49.0111 30.9157 48.5738 34.9509 46.9023C38.9861 45.2309 42.4351 42.4004 44.8616 38.7688C47.2882 35.1373 48.5833 30.8677 48.5833 26.5C48.5833 20.6431 46.2567 15.0262 42.1153 10.8847C37.9738 6.74331 32.3569 4.41668 26.5 4.41668Z" fill="#255586"/>
<path d="M32.3885 40.4857C32.0983 40.4871 31.8108 40.4305 31.5428 40.3193C31.2749 40.208 31.0318 40.0444 30.8279 39.838L19.0501 28.0602C18.6366 27.6461 18.4043 27.0848 18.4043 26.4996C18.4043 25.9144 18.6366 25.3531 19.0501 24.9391L30.8279 13.1613C31.2465 12.7712 31.8002 12.5589 32.3723 12.5689C32.9444 12.579 33.4903 12.8108 33.8949 13.2154C34.2995 13.62 34.5313 14.1659 34.5414 14.738C34.5515 15.3101 34.3391 15.8638 33.949 16.2824L23.7318 26.4996L33.949 36.7168C34.3626 37.1309 34.5949 37.6922 34.5949 38.2774C34.5949 38.8626 34.3626 39.4239 33.949 39.838C33.7451 40.0444 33.5021 40.208 33.2341 40.3193C32.9661 40.4305 32.6786 40.4871 32.3885 40.4857Z" fill="#255586"/>
</svg>
