<svg width="228" height="94" viewBox="0 0 228 94" fill="none" xmlns="http://www.w3.org/2000/svg">
<path d="M146.965 74.994C146.965 76.1143 146.566 77.1442 145.912 77.9212C145.165 78.8337 144.062 79.4119 142.822 79.4119H113.303C110.603 79.4119 108.421 77.081 108.421 74.217C108.421 72.4733 108.99 70.7838 110.034 69.4377L134.12 38.4128H112.572C111.392 38.4128 110.331 37.8888 109.576 37.0485C108.862 36.2535 108.421 35.1784 108.421 33.9948C108.421 32.8113 108.862 31.7362 109.576 30.9502C110.331 30.1099 111.392 29.5859 112.572 29.5859H140.114C143.17 29.5859 145.641 32.224 145.641 35.4675C145.641 37.3105 145.038 39.0994 143.943 40.5269L120.808 70.5851H142.822C144.503 70.5851 145.955 71.6512 146.592 73.187C146.838 73.7382 146.965 74.3525 146.965 74.994Z" fill="white"/>
<path d="M167.9 68.6151C167.722 68.4707 167.544 68.3264 167.365 68.1641C167.493 68.2813 167.628 68.3896 167.764 68.4978C167.807 68.5429 167.858 68.579 167.9 68.6151Z" fill="white"/>
<path d="M192.004 60.1685C191.876 60.6563 191.715 61.1261 191.545 61.5869V61.605H191.528C191.707 61.1352 191.868 60.6563 192.004 60.1685Z" fill="white"/>
<path d="M192.191 59.4365C192.174 59.5449 192.148 59.6443 192.123 59.7527C192.089 59.8883 192.046 60.0328 192.004 60.1683C192.072 59.9244 192.131 59.6805 192.191 59.4365Z" fill="white"/>
<path d="M192.343 58.6772C192.343 58.6772 192.343 58.7315 192.335 58.7586C192.309 58.9121 192.275 59.0657 192.241 59.2193C192.241 59.2464 192.241 59.2735 192.224 59.3006C192.216 59.3458 192.207 59.391 192.19 59.4362C192.241 59.1832 192.301 58.9302 192.343 58.6772Z" fill="white"/>
<path d="M192.555 57.1416C192.555 57.1416 192.546 57.2319 192.546 57.2771C192.521 57.494 192.496 57.7108 192.462 57.9186C192.496 57.6566 192.529 57.3946 192.555 57.1416Z" fill="white"/>
<path d="M192.633 55.5517C192.633 55.7686 192.633 55.9854 192.616 56.2022C192.616 56.419 192.599 56.6359 192.582 56.8527C192.573 56.9521 192.565 57.0424 192.556 57.1418C192.599 56.6178 192.624 56.0848 192.624 55.5517C192.624 53.4557 192.259 51.45 191.571 49.6069H191.58C192.267 51.45 192.633 53.4557 192.633 55.5517Z" fill="white"/>
<path d="M210.597 4.62354C210.597 4.62354 210.597 4.68665 210.589 4.72272C210.589 4.68665 210.597 4.6596 210.589 4.62354H210.597Z" fill="white"/>
<path d="M227.16 34.5644C225.98 41.6475 219.29 61.0629 212.728 74.389C212.711 74.4161 212.711 74.4523 212.702 74.4794C211.531 77.2078 210.809 80.2344 210.198 83.243L210.155 83.4146C210.155 83.4146 210.138 83.4959 210.13 83.5411C210.121 83.5772 210.113 83.6224 210.104 83.6586C210.104 83.6947 210.096 83.7308 210.087 83.7579C209.595 86.1521 207.82 88.0313 205.579 88.5463C205.537 88.5553 205.503 88.5644 205.46 88.5734L181.391 93.7502C181.391 93.7502 181.315 93.7683 181.272 93.7773C180.907 93.8587 180.525 93.8948 180.143 93.8948C177.902 93.8948 175.958 92.5667 174.964 90.6152C174.871 90.4526 174.786 90.299 174.693 90.1454C174.582 89.9467 174.464 89.7479 174.353 89.5582C173.92 88.8444 173.47 88.1397 173.003 87.4531C172.783 87.1188 172.553 86.7936 172.316 86.4774C172.061 86.116 171.798 85.7636 171.535 85.4203C171.297 85.1131 171.059 84.815 170.821 84.5168C170.49 84.1193 170.159 83.7218 169.82 83.3333C169.548 83.0261 169.276 82.728 169.005 82.4298C168.41 81.7884 167.799 81.174 167.171 80.5777C166.857 80.2796 166.542 79.9905 166.22 79.7014C165.897 79.4123 165.566 79.1322 165.235 78.8521C165.235 78.8521 165.235 78.8431 165.218 78.8341C164.895 78.5721 164.564 78.301 164.233 78.039C164.225 78.0119 164.216 77.9848 164.208 77.9577L164.199 77.9487C162.892 77.0904 161.661 76.0966 160.523 74.9943C155.565 70.1789 152.449 63.2403 152.449 55.5518C152.449 54.6935 152.483 53.8172 152.568 52.9589C152.814 50.2304 155.098 48.2247 157.662 48.4958C160.234 48.7578 162.111 51.1881 161.856 53.9256C161.814 54.4677 161.788 55.0097 161.788 55.5518C161.788 58.7139 162.637 61.6683 164.097 64.1709C164.097 64.1709 164.097 64.1799 164.106 64.1799C164.352 64.6136 164.624 65.0292 164.912 65.4267C164.921 65.4447 164.929 65.4628 164.946 65.4809C165.082 65.6706 165.218 65.8603 165.371 66.041C165.439 66.1404 165.515 66.2308 165.609 66.3301C165.668 66.4114 165.744 66.5018 165.821 66.5831C165.889 66.6644 165.957 66.7457 166.033 66.827C166.076 66.8903 166.135 66.9535 166.203 67.0168C166.228 67.0529 166.254 67.089 166.288 67.1071C166.449 67.2878 166.61 67.4504 166.772 67.604C166.958 67.8028 167.162 67.9925 167.366 68.1642C167.544 68.3268 167.723 68.4713 167.901 68.6159C167.969 68.6791 168.045 68.7334 168.113 68.7876C168.274 68.914 168.436 69.0405 168.606 69.158C169.098 69.5194 169.607 69.8356 170.134 70.1247C170.838 70.5132 171.577 70.8475 172.341 71.1185C172.681 71.245 173.029 71.3534 173.385 71.4437C173.462 71.4708 173.547 71.4889 173.623 71.507C173.912 71.5793 174.2 71.6425 174.498 71.7057C175.38 71.8774 176.289 71.9677 177.214 71.9677C177.817 71.9677 178.42 71.9316 179.006 71.8593C179.184 71.8413 179.354 71.8142 179.532 71.778C179.71 71.7419 179.889 71.7148 180.067 71.6786C180.415 71.6154 180.755 71.5341 181.094 71.4347C181.604 71.2902 182.113 71.1185 182.605 70.9288C182.928 70.8023 183.242 70.6577 183.556 70.5041C183.718 70.4228 183.87 70.3415 184.032 70.2602C184.185 70.1879 184.329 70.1066 184.482 70.0072C184.634 69.9259 184.787 69.8356 184.94 69.7452C185.237 69.5645 185.526 69.3748 185.806 69.158H185.815C185.959 69.0676 186.095 68.9592 186.231 68.8418C186.366 68.7424 186.511 68.6249 186.647 68.5165C186.85 68.3539 187.054 68.1732 187.249 67.9835C187.309 67.9293 187.368 67.8751 187.428 67.8209C187.453 67.8028 187.479 67.7847 187.504 67.7576C187.733 67.5408 187.971 67.3059 188.183 67.071C188.353 66.8903 188.523 66.7006 188.676 66.5018C188.701 66.4837 188.718 66.4566 188.727 66.4386C188.829 66.3121 188.939 66.1856 189.032 66.0591C189.16 65.9145 189.27 65.77 189.372 65.6164C189.414 65.5622 189.457 65.508 189.491 65.4447C189.533 65.3905 189.576 65.3363 189.61 65.2821C189.737 65.1105 189.856 64.9388 189.958 64.7581C190.06 64.6045 190.153 64.4509 190.246 64.2883C190.391 64.0624 190.518 63.8366 190.637 63.5926C190.645 63.5746 190.654 63.5565 190.671 63.5294C190.747 63.3848 190.824 63.2313 190.9 63.0777C190.934 63.0054 190.968 62.9331 191.002 62.8608C191.044 62.7795 191.078 62.6982 191.112 62.6169C191.129 62.6079 191.129 62.5898 191.138 62.5717C191.146 62.5537 191.155 62.5356 191.163 62.5175C191.223 62.382 191.282 62.2465 191.333 62.111C191.367 62.0297 191.401 61.9393 191.435 61.858C191.469 61.7767 191.503 61.6863 191.537 61.605V61.587C191.715 61.1262 191.876 60.6564 192.004 60.1685C192.046 60.033 192.089 59.8885 192.123 59.7529C192.148 59.6445 192.174 59.5451 192.191 59.4367C192.207 59.3915 192.216 59.3464 192.224 59.3012C192.233 59.2741 192.241 59.247 192.241 59.2199C192.275 59.0663 192.309 58.9127 192.335 58.7591C192.343 58.732 192.343 58.7049 192.343 58.6778C192.394 58.4248 192.437 58.1719 192.462 57.9189C192.496 57.7111 192.522 57.4943 192.547 57.2774C192.547 57.2323 192.556 57.1871 192.556 57.1419C192.556 57.0425 192.573 56.9522 192.581 56.8528C192.598 56.636 192.615 56.4192 192.615 56.2023C192.632 55.9855 192.632 55.7687 192.632 55.5518C192.632 53.4558 192.267 51.4501 191.579 49.607C191.486 49.3541 191.392 49.1101 191.291 48.8662C191.189 48.6313 191.087 48.3874 190.968 48.1525C190.858 47.9176 190.747 47.6827 190.62 47.4568C190.493 47.2219 190.365 47.0051 190.229 46.7792C190.212 46.7431 190.195 46.716 190.178 46.6889C190.068 46.4991 189.949 46.3094 189.822 46.1197C189.805 46.1016 189.796 46.0745 189.779 46.0564C189.652 45.8577 189.516 45.677 189.38 45.4873C189.38 45.4782 189.363 45.4601 189.346 45.4511C189.211 45.2524 189.058 45.0626 188.905 44.8729C188.744 44.6832 188.582 44.4934 188.413 44.3037H188.404C185.594 41.1235 181.612 39.1449 177.206 39.1449C173.377 39.1449 169.709 40.6447 166.874 43.3731C164.963 45.2072 162.009 45.0446 160.285 43.0118C158.553 40.9699 158.706 37.8349 160.617 35.9919C165.176 31.6191 171.068 29.2069 177.206 29.2069C183.998 29.2069 190.161 32.1341 194.636 36.8682C193.362 23.0994 191.766 9.80047 190.773 5.72585C190.756 5.66261 190.747 5.59937 190.739 5.53613C190.408 3.51237 191.613 1.53379 193.506 1.06399C195.434 0.576115 197.369 1.85 197.853 3.92796C197.87 3.9641 197.87 3.9912 197.879 4.02734C199.398 8.68018 202.769 26.8759 205.282 43.4274C207.303 32.0437 209.009 19.7747 209.315 14.5798C209.323 14.4894 209.332 14.4081 209.34 14.3268C209.467 12.9987 210.189 11.7791 211.369 11.1376C213.169 10.1709 215.36 10.993 216.242 13.0258C216.489 13.604 216.599 14.2094 216.599 14.8057V14.9863C216.777 20.2084 216.217 32.8568 215.241 44.7464C217.643 39.0094 219.494 33.9771 220.309 31.0228C220.326 30.9505 220.352 30.8873 220.386 30.8241C220.708 29.9658 221.26 29.234 222.016 28.7822C223.79 27.7071 226.023 28.6828 226.948 31.059C227.407 32.2063 227.458 33.4712 227.16 34.5644Z" fill="white"/>
<path d="M170.134 70.1244C169.607 69.8353 169.098 69.5191 168.605 69.1577C169.098 69.5101 169.607 69.8263 170.134 70.1244Z" fill="white"/>
<path d="M179.533 71.7774C179.354 71.8135 179.184 71.8406 179.006 71.8587C178.42 71.931 177.818 71.9671 177.215 71.9671C176.289 71.9671 175.381 71.8767 174.498 71.7051C175.381 71.8677 176.281 71.958 177.206 71.958C177.809 71.958 178.412 71.9219 178.998 71.8496C179.176 71.8316 179.354 71.8045 179.533 71.7774Z" fill="white"/>
<path d="M188.676 66.502C188.523 66.7007 188.353 66.8904 188.183 67.0711C187.971 67.306 187.733 67.5409 187.504 67.7578C187.479 67.7849 187.453 67.8029 187.428 67.821C187.869 67.4054 188.277 66.9718 188.676 66.502Z" fill="white"/>
<path d="M189.491 65.4443C189.457 65.5075 189.414 65.5616 189.372 65.6157C189.27 65.7691 189.16 65.9134 189.032 66.0577C189.194 65.8593 189.346 65.6518 189.491 65.4443Z" fill="white"/>
<path d="M189.346 45.4511C189.049 45.0536 188.735 44.6651 188.412 44.3037C188.582 44.4934 188.743 44.6832 188.905 44.8729C189.057 45.0626 189.21 45.2523 189.346 45.4511Z" fill="white"/>
<path d="M189.779 46.055C189.634 45.8476 189.49 45.6491 189.346 45.4507C189.363 45.4597 189.371 45.4777 189.38 45.4868C189.516 45.6762 189.651 45.8566 189.779 46.055Z" fill="white"/>
<path d="M192.003 60.1685C191.876 60.6563 191.715 61.1261 191.545 61.5869V61.605C191.502 61.6863 191.469 61.7766 191.435 61.8579C191.469 61.7766 191.502 61.6863 191.528 61.605C191.706 61.1352 191.868 60.6563 192.003 60.1685Z" fill="white"/>
<path d="M192.191 59.4365C192.174 59.5449 192.148 59.6443 192.123 59.7527C192.089 59.8883 192.046 60.0328 192.004 60.1683C192.072 59.9244 192.131 59.6805 192.191 59.4365Z" fill="white"/>
<path d="M192.343 58.6772C192.343 58.6772 192.343 58.7315 192.335 58.7586C192.309 58.9121 192.275 59.0657 192.241 59.2193C192.241 59.2464 192.241 59.2735 192.224 59.3006C192.216 59.3458 192.207 59.391 192.19 59.4362C192.241 59.1832 192.301 58.9302 192.343 58.6772Z" fill="white"/>
<path d="M192.555 57.1416C192.555 57.1416 192.546 57.2319 192.546 57.2771C192.521 57.494 192.496 57.7108 192.462 57.9186C192.496 57.6566 192.529 57.3946 192.555 57.1416Z" fill="white"/>
<path d="M192.632 55.5514C192.632 55.7683 192.632 55.9851 192.615 56.2019C192.615 56.4188 192.598 56.6356 192.581 56.8524C192.573 56.9518 192.564 57.0421 192.556 57.1415C192.598 56.6175 192.624 56.0845 192.624 55.5514C192.624 53.4554 192.259 51.4497 191.571 49.6066C191.214 48.6128 190.756 47.6642 190.229 46.7788C190.365 47.0047 190.493 47.2215 190.62 47.4564C190.747 47.6823 190.858 47.9172 190.968 48.1521C191.087 48.387 191.189 48.6309 191.291 48.8658C191.393 49.1097 191.486 49.3537 191.579 49.5976C192.267 51.4497 192.632 53.4554 192.632 55.5514Z" fill="white"/>
<path d="M102.283 74.994C102.283 76.4034 101.663 77.6592 100.695 78.4542C99.9904 79.0596 99.099 79.4119 98.1311 79.4119H72.3048C69.5031 79.4119 67.2363 76.9997 67.2363 74.0182V34.9796C67.2363 31.9982 69.5031 29.5859 72.3048 29.5859H96.8831C98.3943 29.5859 99.7188 30.4442 100.44 31.7271C100.814 32.3867 101.035 33.1636 101.035 33.9948C101.035 34.826 100.814 35.603 100.44 36.2625C99.7188 37.5545 98.3943 38.4128 96.8831 38.4128H77.0677V49.0917H95.9662C97.4435 49.0917 98.7424 49.9139 99.4641 51.1606C99.8716 51.8382 100.109 52.6423 100.109 53.5096C100.109 54.377 99.8716 55.181 99.4641 55.8586C98.7339 57.0964 97.4435 57.9185 95.9662 57.9185H77.0677V70.5851H98.1311C99.532 70.5851 100.78 71.3259 101.519 72.4643C102.003 73.1871 102.283 74.0544 102.283 74.994Z" fill="white"/>
<path d="M38.9563 74.994C38.9563 76.1143 38.5573 77.1442 37.9036 77.9212C37.1565 78.8337 36.0528 79.4119 34.8133 79.4119H5.29381C2.59402 79.4119 0.412109 77.081 0.412109 74.217C0.412109 72.4733 0.980934 70.7838 2.02519 69.4377L26.1111 38.4128H4.56368C3.38358 38.4128 2.32234 37.8888 1.56674 37.0485C0.853585 36.2535 0.412109 35.1784 0.412109 33.9948C0.412109 32.8113 0.853585 31.7362 1.56674 30.9502C2.32234 30.1099 3.38358 29.5859 4.56368 29.5859H32.105C35.1613 29.5859 37.6319 32.224 37.6319 35.4675C37.6319 37.3105 37.0291 39.0994 35.9339 40.5269L12.7989 70.5851H34.8133C36.4943 70.5851 37.946 71.6512 38.5828 73.187C38.829 73.7382 38.9563 74.3525 38.9563 74.994Z" fill="white"/>
<path d="M56.0379 34.3473V74.7682C56.0379 76.7468 55.0277 78.4814 53.5249 79.412C52.7778 79.8818 51.9119 80.1529 50.978 80.1529C50.0441 80.1529 49.1781 79.8818 48.431 79.412C46.9283 78.4814 45.918 76.7468 45.918 74.7682V34.3473C45.918 32.2874 47.0047 30.4895 48.6008 29.586C49.3054 29.1795 50.112 28.9536 50.978 28.9536C51.8439 28.9536 52.6505 29.1795 53.3551 29.586C54.9512 30.4895 56.0379 32.2874 56.0379 34.3473Z" fill="white"/>
</svg>
