<svg width="271" height="271" viewBox="0 0 271 271" fill="none" xmlns="http://www.w3.org/2000/svg">
<g clip-path="url(#clip0_251_673)">
<path d="M135.25 21.6C165.61 21.6 194.15 33.42 215.62 54.89C237.09 76.36 248.91 104.9 248.91 135.26C248.91 165.62 237.09 194.16 215.62 215.63C194.15 237.1 165.61 248.92 135.25 248.92C104.89 248.92 76.35 237.1 54.88 215.63C33.41 194.16 21.59 165.62 21.59 135.26C21.59 104.9 33.41 76.36 54.88 54.89C76.35 33.42 104.89 21.6 135.25 21.6ZM135.25 0C60.55 0 0 60.55 0 135.25C0 209.95 60.55 270.5 135.25 270.5C209.95 270.5 270.5 209.95 270.5 135.25C270.5 60.55 209.95 0 135.25 0Z" fill="#255586"/>
<path d="M215.83 105.14C213.32 119.32 199.06 158.19 185.08 184.86C185.04 184.91 185.04 184.99 185.03 185.04C182.53 190.5 181 196.56 179.69 202.58L179.6 202.92C179.58 203.01 179.56 203.08 179.55 203.17C179.53 203.24 179.51 203.33 179.5 203.41C179.5 203.48 179.48 203.55 179.46 203.61C178.41 208.4 174.63 212.16 169.86 213.2C169.77 213.22 169.7 213.24 169.61 213.25L118.34 223.61C118.25 223.63 118.18 223.65 118.09 223.66C117.31 223.82 116.5 223.9 115.68 223.9C110.91 223.9 106.76 221.24 104.65 217.33C104.45 217 104.27 216.7 104.07 216.39C103.83 215.99 103.58 215.59 103.35 215.21C102.43 213.78 101.47 212.37 100.47 211C100 210.33 99.51 209.68 99.01 209.05C98.47 208.33 97.91 207.62 97.35 206.93C96.84 206.32 96.34 205.72 95.83 205.12C95.12 204.32 94.42 203.53 93.7 202.75C93.12 202.14 92.54 201.54 91.96 200.94C90.69 199.66 89.39 198.43 88.05 197.23C87.38 196.63 86.71 196.05 86.02 195.48C85.33 194.91 84.63 194.34 83.92 193.78C83.92 193.78 83.9 193.76 83.88 193.74C83.19 193.22 82.49 192.67 81.78 192.15C81.76 192.1 81.74 192.04 81.73 191.99V191.97H81.71C78.92 190.25 76.3 188.26 73.88 186.06C63.32 176.42 56.68 162.53 56.68 147.14C56.68 145.42 56.75 143.67 56.93 141.95C57.45 136.49 62.32 132.47 67.78 133.02C73.26 133.54 77.26 138.41 76.71 143.89C76.62 144.98 76.57 146.06 76.57 147.15C76.57 153.48 78.38 159.39 81.49 164.4C81.49 164.4 81.49 164.42 81.51 164.42C82.03 165.29 82.61 166.12 83.23 166.92C83.25 166.96 83.27 166.99 83.3 167.03C83.59 167.41 83.88 167.79 84.2 168.15C84.34 168.35 84.51 168.53 84.71 168.73C84.84 168.89 85 169.07 85.16 169.24C85.3 169.4 85.45 169.57 85.61 169.73C85.7 169.86 85.83 169.98 85.97 170.11C86.02 170.18 86.08 170.25 86.15 170.29C86.49 170.65 86.84 170.98 87.18 171.28C87.58 171.68 88.01 172.06 88.45 172.4C88.83 172.73 89.21 173.01 89.59 173.3C89.73 173.43 89.9 173.54 90.04 173.64C90.38 173.89 90.73 174.15 91.09 174.38C92.14 175.1 93.22 175.74 94.35 176.32C95.85 177.1 97.42 177.77 99.05 178.31C99.77 178.56 100.52 178.78 101.27 178.96C101.43 179.01 101.61 179.05 101.78 179.09C102.39 179.23 103.01 179.36 103.64 179.49C105.52 179.83 107.46 180.01 109.43 180.01C110.71 180.01 112 179.94 113.25 179.79C113.63 179.75 113.99 179.7 114.37 179.63C114.75 179.56 115.13 179.5 115.51 179.43C116.25 179.3 116.97 179.14 117.7 178.94C118.79 178.65 119.87 178.31 120.92 177.93C121.61 177.68 122.28 177.39 122.95 177.08C123.29 176.92 123.62 176.75 123.96 176.59C124.29 176.45 124.59 176.28 124.92 176.08C125.25 175.92 125.57 175.74 125.9 175.56C126.53 175.2 127.15 174.82 127.74 174.38H127.76C128.07 174.2 128.36 173.98 128.65 173.75C128.94 173.55 129.25 173.32 129.54 173.1C129.97 172.77 130.41 172.41 130.82 172.03C130.95 171.92 131.07 171.81 131.2 171.7C131.25 171.66 131.31 171.63 131.36 171.57C131.85 171.14 132.35 170.67 132.81 170.2C133.17 169.84 133.53 169.46 133.86 169.06C133.91 169.02 133.95 168.97 133.97 168.93C134.19 168.68 134.42 168.42 134.62 168.17C134.89 167.88 135.13 167.59 135.34 167.28C135.43 167.17 135.52 167.06 135.59 166.94C135.68 166.83 135.77 166.72 135.84 166.61C136.11 166.27 136.36 165.92 136.58 165.56C136.8 165.25 137 164.95 137.19 164.62C137.5 164.17 137.77 163.72 138.02 163.23C138.04 163.19 138.06 163.16 138.09 163.1C138.25 162.81 138.42 162.5 138.58 162.2C138.65 162.06 138.72 161.91 138.8 161.77C138.89 161.61 138.96 161.44 139.04 161.28C139.08 161.26 139.08 161.23 139.09 161.19C139.1 161.15 139.13 161.12 139.14 161.08C139.27 160.81 139.39 160.54 139.5 160.27C139.57 160.11 139.64 159.93 139.72 159.76C139.79 159.6 139.86 159.42 139.94 159.25L139.96 159.21C140.32 158.29 140.67 157.35 140.94 156.37C141.03 156.1 141.12 155.81 141.19 155.54C141.24 155.32 141.3 155.12 141.33 154.91C141.37 154.82 141.38 154.73 141.4 154.64C141.42 154.59 141.44 154.53 141.44 154.48C141.51 154.17 141.58 153.87 141.64 153.56C141.66 153.51 141.66 153.45 141.66 153.4C141.77 152.89 141.86 152.39 141.91 151.88C141.98 151.46 142.04 151.03 142.09 150.6C142.09 150.51 142.11 150.42 142.11 150.33C142.13 150.13 142.15 149.95 142.16 149.75C142.2 149.32 142.23 148.88 142.23 148.45C142.27 148.02 142.27 147.58 142.27 147.15C142.27 142.95 141.49 138.94 140.03 135.25V135.23C139.83 134.74 139.63 134.25 139.42 133.77C139.2 133.3 138.99 132.81 138.73 132.34C138.49 131.87 138.26 131.4 137.99 130.95C137.72 130.48 137.45 130.05 137.16 129.59C137.12 129.52 137.09 129.46 137.05 129.41C136.81 129.03 136.56 128.65 136.29 128.27C136.25 128.23 136.24 128.18 136.2 128.14C135.93 127.74 135.64 127.38 135.35 127C135.33 126.98 135.31 126.95 135.28 126.93C134.99 126.53 134.67 126.15 134.34 125.77C134 125.39 133.65 125.01 133.29 124.63L133.27 124.61C127.28 118.26 118.8 114.3 109.41 114.3C101.25 114.3 93.44 117.3 87.4 122.76C83.33 126.43 77.04 126.11 73.37 122.04C69.68 117.95 70.01 111.68 74.08 107.99C83.79 99.24 96.34 94.41 109.42 94.41C123.89 94.41 137.02 100.27 146.55 109.75C143.84 82.19 140.44 55.57 138.32 47.41C138.28 47.28 138.27 47.16 138.25 47.03C137.54 42.98 140.11 39.02 144.15 38.08C148.26 37.1 152.38 39.65 153.41 43.81C153.45 43.88 153.45 43.94 153.46 44.01C156.7 53.32 163.88 89.75 169.23 122.88C173.53 100.09 177.17 75.53 177.82 65.13C177.84 64.95 177.86 64.79 177.87 64.62C178.14 61.96 179.68 59.52 182.19 58.24C186.02 56.3 190.69 57.95 192.57 62.02C193.09 63.18 193.33 64.39 193.33 65.58V65.94C193.71 76.39 192.52 101.71 190.44 125.51C195.56 114.03 199.5 103.95 201.24 98.04C201.28 97.9 201.33 97.77 201.4 97.64C202.09 95.92 203.26 94.46 204.87 93.55C208.65 91.4 213.41 93.35 215.38 98.11C216.36 100.41 216.47 102.94 215.83 105.13V105.14Z" fill="#EF7946"/>
</g>
<defs>
<clipPath id="clip0_251_673">
<rect width="270.5" height="270.5" fill="white"/>
</clipPath>
</defs>
</svg>
