<svg width="395" height="152" viewBox="0 0 395 152" fill="none" xmlns="http://www.w3.org/2000/svg">
<g clip-path="url(#clip0_251_674)">
<path d="M255.088 121.089C255.088 122.921 254.393 124.605 253.255 125.876C251.955 127.369 250.034 128.314 247.876 128.314H196.495C191.796 128.314 187.998 124.502 187.998 119.818C187.998 116.966 188.988 114.203 190.806 112.002L232.729 61.261H195.224C193.17 61.261 191.323 60.404 190.008 59.0298C188.767 57.7296 187.998 55.9712 187.998 54.0356C187.998 52.0999 188.767 50.3416 190.008 49.0561C191.323 47.6819 193.17 46.8249 195.224 46.8249H243.162C248.482 46.8249 252.782 51.1395 252.782 56.4441C252.782 59.4583 251.733 62.384 249.827 64.7186L209.558 113.878H247.876C250.802 113.878 253.329 115.622 254.437 118.134C254.866 119.035 255.088 120.04 255.088 121.089V121.089Z" fill="#255586"/>
<path d="M291.529 110.657C291.218 110.421 290.908 110.184 290.598 109.918C290.819 110.11 291.056 110.288 291.292 110.465C291.366 110.539 291.455 110.598 291.529 110.657Z" fill="#255586"/>
<path d="M333.482 96.8414C333.26 97.6393 332.979 98.4077 332.684 99.1613V99.1908H332.654C332.965 98.4224 333.245 97.6393 333.482 96.8414V96.8414Z" fill="#255586"/>
<path d="M333.807 95.6446C333.777 95.8219 333.733 95.9844 333.689 96.1617C333.629 96.3834 333.556 96.6198 333.482 96.8414C333.6 96.4425 333.703 96.0435 333.807 95.6446V95.6446Z" fill="#255586"/>
<path d="M334.073 94.4034C334.073 94.4034 334.073 94.4921 334.058 94.5364C334.014 94.7876 333.955 95.0388 333.895 95.29C333.895 95.3343 333.895 95.3786 333.866 95.423C333.851 95.4968 333.836 95.5707 333.807 95.6446C333.895 95.2309 333.999 94.8171 334.073 94.4034V94.4034Z" fill="#255586"/>
<path d="M334.442 91.8915C334.442 91.8915 334.427 92.0393 334.427 92.1132C334.383 92.4678 334.339 92.8224 334.28 93.1622C334.339 92.7337 334.398 92.3052 334.442 91.8915V91.8915Z" fill="#255586"/>
<path d="M334.575 89.2909C334.575 89.6455 334.575 90.0002 334.546 90.3548C334.546 90.7094 334.516 91.064 334.487 91.4187C334.472 91.5812 334.457 91.7289 334.442 91.8915C334.516 91.0345 334.56 90.1627 334.56 89.2909C334.56 85.8629 333.925 82.5826 332.728 79.5684H332.743C333.94 82.5826 334.575 85.8629 334.575 89.2909Z" fill="#255586"/>
<path d="M365.844 5.99902C365.844 5.99902 365.844 6.10246 365.829 6.16156C365.829 6.10246 365.844 6.05813 365.829 5.99902H365.844Z" fill="#255586"/>
<path d="M394.675 54.9664C392.621 66.5508 380.976 98.3042 369.553 120.099C369.524 120.143 369.524 120.202 369.509 120.247C367.47 124.709 366.214 129.659 365.15 134.579L365.076 134.86C365.076 134.86 365.046 134.993 365.031 135.067C365.017 135.126 365.002 135.2 364.987 135.259C364.987 135.318 364.972 135.377 364.958 135.421C364.1 139.337 361.012 142.41 357.111 143.253C357.037 143.267 356.978 143.282 356.904 143.297L315.01 151.764C315.01 151.764 314.877 151.793 314.803 151.808C314.168 151.941 313.503 152 312.838 152C308.936 152 305.552 149.828 303.823 146.636C303.661 146.37 303.513 146.119 303.351 145.868C303.158 145.543 302.952 145.218 302.759 144.908C302.006 143.74 301.223 142.588 300.41 141.465C300.026 140.918 299.627 140.386 299.213 139.869C298.77 139.278 298.311 138.702 297.853 138.14C297.44 137.638 297.026 137.15 296.612 136.663C296.036 136.012 295.459 135.362 294.868 134.727C294.395 134.225 293.923 133.737 293.45 133.249C292.415 132.2 291.351 131.195 290.258 130.22C289.711 129.733 289.164 129.26 288.603 128.787C288.041 128.314 287.465 127.856 286.889 127.398C286.889 127.398 286.889 127.383 286.859 127.368C286.297 126.94 285.721 126.497 285.145 126.068C285.13 126.024 285.115 125.98 285.1 125.935L285.086 125.92C282.81 124.517 280.667 122.891 278.687 121.089C270.057 113.213 264.634 101.865 264.634 89.2909C264.634 87.8872 264.693 86.454 264.841 85.0502C265.269 80.5879 269.244 77.3077 273.707 77.7509C278.185 78.1794 281.45 82.1542 281.007 86.6313C280.933 87.5178 280.889 88.4044 280.889 89.2909C280.889 94.4625 282.367 99.2942 284.908 103.387C284.908 103.387 284.908 103.402 284.923 103.402C285.352 104.111 285.825 104.791 286.327 105.441C286.342 105.471 286.357 105.5 286.386 105.53C286.623 105.84 286.859 106.15 287.125 106.446C287.243 106.608 287.376 106.756 287.539 106.919C287.642 107.052 287.775 107.199 287.908 107.332C288.026 107.465 288.145 107.598 288.278 107.731C288.352 107.835 288.455 107.938 288.573 108.042C288.618 108.101 288.662 108.16 288.721 108.189C289.002 108.485 289.282 108.751 289.563 109.002C289.888 109.327 290.243 109.637 290.598 109.918C290.908 110.184 291.218 110.421 291.529 110.657C291.647 110.76 291.78 110.849 291.898 110.938C292.179 111.145 292.46 111.351 292.755 111.543C293.612 112.135 294.499 112.652 295.415 113.125C296.642 113.76 297.927 114.307 299.257 114.75C299.848 114.957 300.454 115.134 301.075 115.282C301.208 115.326 301.356 115.356 301.489 115.385C301.991 115.503 302.494 115.607 303.011 115.71C304.548 115.991 306.129 116.139 307.739 116.139C308.789 116.139 309.838 116.08 310.858 115.961C311.168 115.932 311.463 115.888 311.774 115.829C312.084 115.769 312.394 115.725 312.705 115.666C313.311 115.563 313.902 115.43 314.493 115.267C315.379 115.031 316.266 114.75 317.123 114.44C317.685 114.233 318.231 113.996 318.778 113.745C319.059 113.612 319.325 113.479 319.606 113.346C319.872 113.228 320.123 113.095 320.389 112.932C320.655 112.799 320.921 112.652 321.187 112.504C321.704 112.208 322.207 111.898 322.694 111.543H322.709C322.96 111.396 323.197 111.218 323.433 111.026C323.67 110.864 323.921 110.672 324.157 110.494C324.512 110.228 324.866 109.933 325.206 109.623C325.31 109.534 325.413 109.445 325.517 109.357C325.561 109.327 325.605 109.298 325.65 109.253C326.049 108.899 326.462 108.514 326.832 108.13C327.127 107.835 327.423 107.524 327.689 107.199C327.733 107.17 327.763 107.125 327.778 107.096C327.955 106.889 328.147 106.682 328.31 106.475C328.531 106.239 328.723 106.003 328.901 105.751C328.975 105.663 329.049 105.574 329.108 105.471C329.181 105.382 329.255 105.293 329.314 105.205C329.536 104.924 329.743 104.643 329.92 104.348C330.098 104.096 330.26 103.845 330.423 103.579C330.674 103.21 330.896 102.84 331.103 102.442C331.117 102.412 331.132 102.382 331.162 102.338C331.295 102.102 331.428 101.85 331.561 101.599C331.62 101.481 331.679 101.363 331.738 101.245C331.812 101.112 331.871 100.979 331.93 100.846C331.96 100.831 331.96 100.801 331.974 100.772C331.989 100.742 332.004 100.713 332.019 100.683C332.122 100.462 332.226 100.24 332.314 100.018C332.373 99.8853 332.433 99.7375 332.492 99.6045C332.551 99.4716 332.61 99.3238 332.669 99.1908V99.1613C332.979 98.4077 333.26 97.6393 333.482 96.8414C333.556 96.6198 333.629 96.3834 333.689 96.1617C333.733 95.9844 333.777 95.8219 333.807 95.6446C333.836 95.5707 333.851 95.4968 333.866 95.4229C333.881 95.3786 333.895 95.3343 333.895 95.29C333.955 95.0388 334.014 94.7876 334.058 94.5364C334.073 94.4921 334.073 94.4477 334.073 94.4034C334.161 93.9897 334.235 93.576 334.28 93.1622C334.339 92.8224 334.383 92.4678 334.427 92.1131C334.427 92.0393 334.442 91.9654 334.442 91.8915C334.442 91.729 334.472 91.5812 334.487 91.4187C334.516 91.064 334.546 90.7094 334.546 90.3548C334.575 90.0002 334.575 89.6456 334.575 89.2909C334.575 85.8629 333.94 82.5827 332.743 79.5684C332.58 79.1546 332.418 78.7557 332.24 78.3567C332.063 77.9726 331.886 77.5736 331.679 77.1894C331.487 76.8053 331.295 76.4211 331.073 76.0517C330.851 75.6675 330.63 75.3129 330.393 74.9435C330.364 74.8844 330.334 74.8401 330.305 74.7957C330.112 74.4854 329.906 74.1752 329.684 73.8649C329.654 73.8353 329.64 73.791 329.61 73.7614C329.388 73.4364 329.152 73.1408 328.915 72.8305C328.915 72.8158 328.886 72.7862 328.856 72.7714C328.62 72.4464 328.354 72.1361 328.088 71.8258C327.807 71.5155 327.526 71.2052 327.231 70.8949H327.216C322.325 65.6938 315.394 62.4578 307.725 62.4578C301.06 62.4578 294.676 64.9106 289.741 69.373C286.416 72.3725 281.273 72.1065 278.273 68.7819C275.259 65.4426 275.525 60.3153 278.85 57.301C286.785 50.1495 297.041 46.2043 307.725 46.2043C319.547 46.2043 330.275 50.9917 338.063 58.7343C335.846 36.2158 333.068 14.4656 331.339 7.80168C331.309 7.69825 331.295 7.59482 331.28 7.49139C330.704 4.18158 332.802 0.945649 336.097 0.177301C339.452 -0.620599 342.821 1.46281 343.663 4.86127C343.693 4.92037 343.693 4.9647 343.708 5.02381C346.353 12.6334 352.219 42.3921 356.594 69.4616C360.111 50.844 363.081 30.7783 363.613 22.2821C363.628 22.1343 363.642 22.0013 363.657 21.8684C363.879 19.6963 365.135 17.7016 367.189 16.6525C370.322 15.0714 374.134 16.416 375.671 19.7406C376.1 20.6863 376.292 21.6763 376.292 22.6515V22.947C376.602 31.4875 375.627 52.1738 373.927 71.6189C378.109 62.2362 381.331 54.006 382.75 49.1743C382.779 49.0561 382.823 48.9526 382.883 48.8492C383.444 47.4455 384.405 46.2486 385.72 45.5099C388.808 43.7515 392.695 45.3473 394.305 49.2334C395.103 51.1099 395.192 53.1786 394.675 54.9664V54.9664Z" fill="#255586"/>
<path d="M295.415 113.125C294.499 112.652 293.612 112.135 292.755 111.543C293.612 112.12 294.499 112.637 295.415 113.125Z" fill="#255586"/>
<path d="M311.774 115.829C311.463 115.888 311.168 115.932 310.858 115.961C309.838 116.08 308.789 116.139 307.74 116.139C306.129 116.139 304.548 115.991 303.011 115.71C304.548 115.976 306.114 116.124 307.725 116.124C308.774 116.124 309.823 116.065 310.843 115.947C311.153 115.917 311.463 115.873 311.774 115.829Z" fill="#255586"/>
<path d="M327.689 107.199C327.423 107.524 327.127 107.835 326.832 108.13C326.462 108.514 326.049 108.899 325.65 109.253C325.605 109.298 325.561 109.327 325.517 109.357C326.285 108.677 326.994 107.968 327.689 107.199V107.199Z" fill="#255586"/>
<path d="M329.108 105.471C329.049 105.574 328.975 105.663 328.901 105.751C328.723 106.003 328.531 106.239 328.31 106.475C328.59 106.15 328.856 105.81 329.108 105.471V105.471Z" fill="#255586"/>
<path d="M328.856 72.7714C328.339 72.1213 327.792 71.4859 327.231 70.8949C327.526 71.2052 327.807 71.5155 328.088 71.8258C328.354 72.1361 328.62 72.4464 328.856 72.7714V72.7714Z" fill="#255586"/>
<path d="M329.61 73.7614C329.359 73.4216 329.108 73.0965 328.856 72.7715C328.886 72.7862 328.901 72.8158 328.916 72.8306C329.152 73.1409 329.388 73.4364 329.61 73.7614Z" fill="#255586"/>
<path d="M333.482 96.8414C333.26 97.6393 332.979 98.4077 332.684 99.1613V99.1908C332.61 99.3238 332.551 99.4716 332.492 99.6045C332.551 99.4716 332.61 99.3238 332.654 99.1908C332.965 98.4224 333.245 97.6393 333.482 96.8414V96.8414Z" fill="#255586"/>
<path d="M333.807 95.6446C333.777 95.8219 333.733 95.9844 333.689 96.1617C333.629 96.3834 333.556 96.6198 333.482 96.8414C333.6 96.4425 333.703 96.0435 333.807 95.6446V95.6446Z" fill="#255586"/>
<path d="M334.073 94.4034C334.073 94.4034 334.073 94.4921 334.058 94.5364C334.014 94.7876 333.955 95.0388 333.895 95.29C333.895 95.3343 333.895 95.3786 333.866 95.423C333.851 95.4968 333.836 95.5707 333.807 95.6446C333.895 95.2309 333.999 94.8171 334.073 94.4034V94.4034Z" fill="#255586"/>
<path d="M334.442 91.8915C334.442 91.8915 334.427 92.0393 334.427 92.1132C334.383 92.4678 334.339 92.8224 334.28 93.1622C334.339 92.7337 334.398 92.3052 334.442 91.8915V91.8915Z" fill="#255586"/>
<path d="M334.575 89.2909C334.575 89.6456 334.575 90.0002 334.546 90.3548C334.546 90.7094 334.516 91.064 334.487 91.4187C334.472 91.5812 334.457 91.729 334.442 91.8915C334.516 91.0345 334.56 90.1627 334.56 89.2909C334.56 85.8629 333.925 82.5827 332.728 79.5684C332.107 77.943 331.309 76.3916 330.393 74.9435C330.63 75.3129 330.851 75.6675 331.073 76.0517C331.295 76.4211 331.487 76.8053 331.679 77.1895C331.886 77.5736 332.063 77.9726 332.24 78.3567C332.418 78.7557 332.58 79.1547 332.743 79.5536C333.94 82.5827 334.575 85.8629 334.575 89.2909V89.2909Z" fill="#255586"/>
<path d="M177.314 121.089C177.314 123.394 176.235 125.448 174.551 126.748C173.324 127.738 171.773 128.314 170.088 128.314H125.135C120.258 128.314 116.313 124.369 116.313 119.493V55.6462C116.313 50.7701 120.258 46.8249 125.135 46.8249H167.916C170.546 46.8249 172.851 48.2286 174.107 50.3268C174.758 51.4055 175.142 52.6762 175.142 54.0356C175.142 55.395 174.758 56.6657 174.107 57.7443C172.851 59.8573 170.546 61.261 167.916 61.261H133.425V78.7262H166.32C168.891 78.7262 171.152 80.0708 172.408 82.1098C173.117 83.218 173.531 84.5331 173.531 85.9516C173.531 87.3701 173.117 88.6851 172.408 89.7933C171.137 91.8176 168.891 93.1622 166.32 93.1622H133.425V113.878H170.088C172.526 113.878 174.698 115.09 175.984 116.951C176.826 118.134 177.314 119.552 177.314 121.089V121.089Z" fill="#EF7946"/>
<path d="M67.0894 121.089C67.0894 122.921 66.3949 124.605 65.257 125.876C63.9566 127.369 62.0355 128.314 59.878 128.314H8.49701C3.79779 128.314 0 124.502 0 119.818C0 116.966 0.990086 114.203 2.80771 112.002L44.7312 61.261H7.22615C5.17209 61.261 3.32492 60.404 2.00973 59.0298C0.768425 57.7296 0 55.9712 0 54.0356C0 52.0999 0.768425 50.3416 2.00973 49.0561C3.32492 47.6819 5.17209 46.8249 7.22615 46.8249H55.1641C60.4839 46.8249 64.7841 51.1395 64.7841 56.4441C64.7841 59.4583 63.7349 62.384 61.8287 64.7186L21.5602 113.878H59.878C62.804 113.878 65.3309 115.622 66.4392 118.134C66.8678 119.035 67.0894 120.04 67.0894 121.089V121.089Z" fill="#EF7946"/>
<path d="M96.8215 54.6118V120.719C96.8215 123.955 95.063 126.792 92.4474 128.314C91.147 129.083 89.6397 129.526 88.0142 129.526C86.3887 129.526 84.8814 129.083 83.581 128.314C80.9654 126.792 79.2069 123.955 79.2069 120.719V54.6118C79.2069 51.2429 81.0984 48.3025 83.8765 46.8249C85.1031 46.16 86.5069 45.7906 88.0142 45.7906C89.5215 45.7906 90.9254 46.16 92.1519 46.8249C94.93 48.3025 96.8215 51.2429 96.8215 54.6118V54.6118Z" fill="#EF7946"/>
</g>
<defs>
<clipPath id="clip0_251_674">
<rect width="395" height="152" fill="white"/>
</clipPath>
</defs>
</svg>
